<svg id="svg" version="1.1" xmlns="http://www.w3.org/2000/svg" xmlns:xlink="http://www.w3.org/1999/xlink" width="400" height="400" viewBox="0, 0, 400,400"><g id="svgg"><path id="path0" d="M290.820 142.766 C 250.173 151.266,217.355 180.556,200.901 223.019 L 199.459 226.743 198.686 224.993 C 198.261 224.030,195.602 217.705,192.778 210.938 L 187.642 198.633 181.223 198.536 C 177.693 198.483,174.579 198.585,174.303 198.762 C 173.711 199.144,172.770 196.660,189.860 239.844 L 192.102 245.508 194.858 245.622 L 197.613 245.736 198.439 242.888 C 206.205 216.103,219.123 193.606,236.791 176.098 C 241.835 171.100,250.180 163.761,247.754 166.456 C 246.675 167.656,246.660 168.002,247.656 168.855 C 248.086 169.223,248.438 169.350,248.438 169.137 C 248.438 168.924,248.774 168.750,249.184 168.750 C 250.034 168.750,250.041 169.499,249.202 170.565 C 248.889 170.963,250.303 169.801,252.344 167.984 C 257.393 163.490,258.007 162.064,254.930 161.982 C 253.090 161.933,253.015 162.032,256.721 159.610 L 259.926 157.515 260.400 158.428 C 260.661 158.931,260.932 159.607,261.003 159.931 C 261.146 160.582,260.598 160.911,269.143 155.053 C 277.985 148.991,284.566 145.675,292.729 143.167 C 297.732 141.629,296.995 141.475,290.820 142.766 M273.828 150.733 C 273.828 151.375,272.758 151.968,272.074 151.705 C 271.471 151.474,271.499 151.385,272.317 150.931 C 273.416 150.322,273.828 150.268,273.828 150.733 M234.717 165.918 C 230.353 170.410,227.137 174.411,222.865 180.664 C 219.676 185.331,219.945 185.140,224.237 179.688 C 226.013 177.432,230.026 173.056,233.155 169.964 C 238.207 164.970,238.844 164.195,238.855 163.030 C 238.862 162.309,238.851 161.719,238.831 161.719 C 238.812 161.719,236.960 163.608,234.717 165.918 M245.761 170.548 C 245.471 170.877,245.332 171.243,245.452 171.363 C 245.839 171.750,246.875 171.137,246.875 170.520 C 246.875 169.767,246.443 169.778,245.761 170.548 M241.848 171.618 C 241.609 171.906,241.525 172.254,241.661 172.390 C 241.797 172.526,241.576 172.758,241.169 172.906 C 239.020 173.685,237.589 175.484,238.997 175.635 C 239.248 175.662,239.639 175.706,239.867 175.732 C 240.094 175.759,240.172 175.957,240.039 176.172 C 239.906 176.387,240.072 176.563,240.407 176.563 C 240.742 176.563,241.016 176.749,241.016 176.976 C 241.016 177.204,241.179 177.289,241.379 177.165 C 241.996 176.784,242.213 177.618,241.624 178.107 C 241.318 178.360,241.094 178.908,241.125 179.323 C 241.191 180.202,241.052 180.326,244.419 176.367 C 246.590 173.813,247.180 172.414,245.873 172.915 C 245.492 173.062,245.313 172.859,245.313 172.281 C 245.313 171.609,245.149 171.484,244.531 171.680 C 244.083 171.822,243.750 171.750,243.750 171.511 C 243.750 170.916,242.366 170.994,241.848 171.618 M233.926 192.238 C 231.500 193.127,229.217 198.439,230.264 200.760 C 233.521 207.984,244.531 206.342,244.531 198.633 C 244.531 193.744,238.968 190.390,233.926 192.238 M87.207 198.704 C 86.824 198.852,86.719 203.936,86.719 222.302 L 86.719 245.710 106.152 245.609 L 125.586 245.508 125.586 240.430 L 125.586 235.352 112.598 235.249 L 99.609 235.146 99.609 231.056 L 99.609 226.965 110.645 226.862 L 121.680 226.758 121.789 221.777 L 121.898 216.797 110.754 216.797 L 99.609 216.797 99.609 212.896 L 99.609 208.995 112.207 208.892 L 124.805 208.789 124.915 204.157 C 124.989 201.046,124.876 199.344,124.569 198.975 C 124.121 198.435,88.562 198.177,87.207 198.704 M130.600 198.736 C 130.306 198.925,130.100 200.787,130.014 204.027 L 129.883 209.027 141.504 208.908 C 147.896 208.843,153.125 208.925,153.125 209.091 C 153.125 209.257,152.453 210.136,151.631 211.044 C 150.168 212.661,148.468 214.675,135.608 230.027 L 129.271 237.594 129.381 241.551 L 129.492 245.508 150.977 245.508 L 172.461 245.508 172.461 240.430 L 172.461 235.352 159.863 235.248 C 152.935 235.192,147.266 235.054,147.266 234.943 C 147.266 234.832,151.971 229.076,157.721 222.152 C 171.958 205.009,170.362 207.494,170.229 202.679 L 170.117 198.633 150.586 198.539 C 139.844 198.488,130.850 198.576,130.600 198.736 M298.535 201.085 L 292.969 201.193 292.969 206.104 L 292.969 211.014 290.612 210.741 L 288.256 210.467 288.366 215.097 L 288.477 219.727 290.691 219.843 L 292.905 219.959 293.035 228.827 C 293.202 240.289,294.113 242.338,300.344 245.260 C 304.718 247.311,315.321 246.404,316.283 243.897 C 316.441 243.487,313.967 236.235,313.458 235.616 C 313.401 235.546,312.819 235.766,312.165 236.104 C 310.363 237.036,308.063 236.897,306.760 235.777 L 305.664 234.835 305.543 227.183 L 305.422 219.531 309.742 219.531 L 314.063 219.531 314.063 215.234 L 314.063 210.938 309.766 210.938 L 305.469 210.938 305.469 206.264 C 305.469 200.586,305.943 200.941,298.535 201.085 M262.749 209.604 C 243.564 214.248,243.668 240.915,262.891 245.906 C 268.956 247.481,277.066 246.110,281.651 242.735 C 284.588 240.573,284.595 240.628,280.905 236.959 L 277.826 233.898 276.120 234.887 C 270.746 238.003,264.901 237.499,262.318 233.697 C 260.583 231.144,260.848 230.782,264.355 230.909 C 266.021 230.969,271.664 230.982,276.898 230.939 L 286.412 230.859 286.266 226.465 C 285.853 214.070,275.365 206.550,262.749 209.604 M231.130 210.407 C 230.981 210.555,230.859 218.558,230.859 228.190 L 230.859 245.703 237.113 245.703 L 243.367 245.703 243.266 228.027 L 243.164 210.352 237.282 210.244 C 234.047 210.185,231.278 210.258,231.130 210.407 M271.679 219.140 C 272.874 219.878,274.609 222.613,274.609 223.756 C 274.609 224.095,272.779 224.219,267.773 224.219 C 264.014 224.219,260.938 224.125,260.938 224.011 C 260.938 219.571,267.535 216.579,271.679 219.140 " stroke="none" fill="#183f8c" fill-rule="evenodd"></path><path id="path1" d="M0.000 200.000 L 0.000 400.000 200.000 400.000 L 400.000 400.000 400.000 200.000 L 400.000 0.000 200.000 0.000 L 0.000 0.000 0.000 200.000 M272.771 125.684 C 273.109 128.208,273.692 132.837,274.067 135.970 L 274.749 141.666 278.195 142.177 C 281.905 142.726,282.500 143.122,280.176 143.494 C 279.370 143.623,276.691 144.368,274.221 145.150 C 270.368 146.371,269.561 146.511,268.529 146.138 C 266.189 145.291,262.952 146.745,263.396 148.442 C 263.531 148.959,262.373 149.749,258.250 151.957 C 243.504 159.854,229.026 172.586,219.646 185.905 C 219.583 185.994,219.446 185.982,219.342 185.878 C 219.099 185.635,225.966 175.652,228.840 172.070 C 234.079 165.541,242.833 157.378,250.177 152.172 L 253.963 149.488 250.880 146.326 C 246.362 141.693,240.877 135.556,241.076 135.356 C 241.171 135.261,245.809 136.131,251.383 137.289 C 256.956 138.447,261.540 139.364,261.568 139.326 C 261.816 139.000,268.948 126.124,270.098 123.926 C 272.017 120.261,272.048 120.281,272.771 125.684 M300.176 141.353 C 299.972 141.539,298.708 141.899,297.369 142.153 C 296.029 142.407,294.271 142.858,293.462 143.155 L 291.992 143.695 293.164 143.728 C 295.996 143.809,295.102 144.474,285.833 149.184 C 280.627 151.829,276.257 154.106,276.123 154.243 C 275.989 154.380,276.470 159.050,277.193 164.620 C 277.916 170.190,278.448 174.807,278.375 174.880 C 278.302 174.954,276.671 173.385,274.751 171.394 C 270.735 167.229,264.664 160.791,264.616 160.645 C 264.180 159.330,254.751 166.044,249.590 171.344 C 244.013 177.071,234.383 189.326,234.374 190.708 C 234.374 190.770,235.423 190.761,236.706 190.689 C 246.013 190.163,249.542 201.537,241.340 205.624 C 236.962 207.805,231.703 206.294,229.647 202.264 L 228.832 200.667 228.056 202.384 C 224.091 211.158,219.559 223.185,213.610 240.721 L 211.523 246.872 201.669 246.874 C 190.103 246.875,191.620 247.658,188.858 240.262 C 187.861 237.592,185.767 232.230,184.205 228.348 C 172.335 198.851,172.156 198.342,173.412 197.670 C 174.624 197.021,187.708 197.139,188.374 197.804 C 188.877 198.308,192.212 206.238,199.531 224.339 C 199.745 224.868,200.197 224.133,201.333 221.409 C 216.736 184.483,242.967 158.118,275.604 146.760 C 284.167 143.781,301.763 139.909,300.176 141.353 M125.564 198.134 C 126.037 198.809,126.172 200.106,126.172 203.971 C 126.172 210.708,127.382 210.156,112.608 210.156 L 100.781 210.156 100.781 212.891 L 100.781 215.625 111.445 215.625 C 124.211 215.625,123.047 214.998,123.047 221.875 C 123.047 228.752,124.211 228.125,111.445 228.125 L 100.781 228.125 100.781 231.055 L 100.781 233.984 113.259 233.984 C 128.305 233.984,126.953 233.333,126.953 240.584 C 126.953 247.611,129.361 246.875,106.359 246.875 C 93.801 246.875,86.794 246.734,86.302 246.471 C 85.242 245.903,85.105 198.936,86.161 197.879 C 86.702 197.338,89.031 197.266,105.865 197.266 L 124.956 197.266 125.564 198.134 M171.144 197.917 C 171.890 198.825,171.743 206.781,170.957 207.957 C 170.652 208.415,165.716 214.414,159.988 221.289 L 149.573 233.789 161.325 233.984 C 171.198 234.148,173.135 234.273,173.446 234.766 C 174.138 235.861,173.918 245.347,173.182 246.161 C 172.370 247.057,129.872 247.294,128.984 246.406 C 128.673 246.095,128.516 244.395,128.516 241.341 L 128.516 236.744 139.524 223.548 L 150.533 210.352 139.925 210.248 C 127.195 210.123,128.286 210.774,128.670 203.540 C 128.898 199.232,129.029 198.549,129.743 197.949 C 130.963 196.923,170.301 196.892,171.144 197.917 M305.699 200.182 C 306.599 200.772,306.641 200.987,306.641 205.087 L 306.641 209.375 310.352 209.375 C 315.495 209.375,315.625 209.521,315.625 215.301 C 315.625 221.069,315.603 221.094,310.486 221.094 L 306.641 221.094 306.641 227.557 C 306.641 235.994,307.252 236.917,311.688 235.168 C 314.153 234.197,314.335 234.356,316.014 238.951 C 318.504 245.768,316.698 247.477,307.031 247.447 C 295.497 247.412,291.797 242.719,291.797 228.125 L 291.797 221.133 289.551 221.016 L 287.305 220.898 287.195 215.629 C 287.070 209.610,287.180 209.375,290.114 209.375 L 291.797 209.375 291.797 205.100 C 291.797 199.589,291.538 199.783,299.042 199.660 C 303.706 199.583,304.931 199.679,305.699 200.182 M273.576 208.428 C 282.563 210.731,289.498 221.276,287.666 229.853 C 287.187 232.097,287.578 232.031,274.757 232.031 C 268.230 232.031,262.891 232.183,262.891 232.369 C 262.891 235.741,269.874 236.856,274.968 234.299 C 276.382 233.589,277.659 232.953,277.806 232.886 C 278.227 232.694,283.984 238.319,284.614 239.538 C 285.861 241.948,280.083 246.079,273.800 247.271 C 255.405 250.760,241.768 234.685,249.426 218.541 C 253.259 210.461,263.985 205.969,273.576 208.428 M244.062 209.453 C 244.737 210.128,244.737 245.731,244.063 246.406 C 243.736 246.733,241.632 246.875,237.109 246.875 C 232.587 246.875,230.483 246.733,230.156 246.406 C 229.357 245.607,229.496 210.404,230.301 209.598 C 231.092 208.808,243.288 208.679,244.062 209.453 M265.248 219.825 C 264.503 220.200,263.564 221.079,263.161 221.777 L 262.428 223.047 267.737 223.047 C 270.658 223.047,273.047 222.950,273.047 222.832 C 273.047 220.018,268.410 218.230,265.248 219.825 " stroke="none" fill="#fbfbfb" fill-rule="evenodd"></path><path id="path2" d="M269.163 126.076 C 267.799 128.600,265.838 132.246,264.806 134.180 L 262.931 137.695 265.484 137.563 C 267.907 137.437,271.165 138.222,273.574 139.512 C 274.233 139.865,274.278 139.767,274.081 138.407 C 273.963 137.586,273.480 133.574,273.009 129.492 C 272.537 125.410,272.037 121.939,271.898 121.780 C 271.759 121.620,270.528 123.553,269.163 126.076 M243.342 137.871 C 244.449 139.149,247.365 142.292,249.822 144.857 L 254.289 149.519 250.289 152.367 C 242.014 158.260,238.530 161.597,238.817 163.355 C 238.898 163.852,238.767 164.508,238.525 164.813 C 238.284 165.118,239.501 164.240,241.231 162.860 C 242.960 161.480,246.426 158.960,248.931 157.258 C 253.882 153.897,254.688 152.761,254.688 149.138 C 254.688 147.170,256.576 143.456,258.696 141.253 L 260.352 139.534 258.398 139.078 C 255.177 138.325,242.018 135.551,241.661 135.549 C 241.478 135.548,242.235 136.593,243.342 137.871 M275.781 142.459 C 276.104 142.574,276.570 142.923,276.819 143.234 C 277.143 143.640,277.667 143.725,278.674 143.536 C 280.598 143.175,280.434 142.733,278.266 142.436 C 276.051 142.132,274.898 142.143,275.781 142.459 M287.380 144.921 C 285.703 145.545,282.856 146.858,281.054 147.841 L 277.776 149.627 277.837 151.152 L 277.898 152.676 279.086 152.174 C 286.534 149.021,294.873 144.321,293.472 144.065 C 291.151 143.641,290.626 143.715,287.380 144.921 M272.317 150.931 C 271.499 151.385,271.471 151.474,272.074 151.705 C 272.758 151.968,273.828 151.375,273.828 150.733 C 273.828 150.268,273.416 150.322,272.317 150.931 M256.721 159.610 C 253.015 162.032,253.090 161.933,254.930 161.982 C 256.392 162.021,257.283 162.795,256.624 163.454 C 255.615 164.463,256.344 164.811,257.547 163.895 C 258.260 163.351,260.032 162.367,261.485 161.708 C 263.518 160.786,264.032 160.395,263.714 160.011 C 263.419 159.656,263.438 159.359,263.779 158.980 C 264.042 158.686,263.818 158.742,263.281 159.103 C 261.195 160.505,260.938 160.606,260.938 160.019 C 260.938 159.714,260.710 159.026,260.432 158.490 L 259.926 157.515 256.721 159.610 M274.342 159.192 C 272.890 160.337,270.444 161.285,267.984 161.656 L 266.242 161.919 268.342 164.260 C 273.538 170.051,278.125 174.586,278.123 173.931 C 278.122 173.552,277.778 170.693,277.360 167.578 C 275.902 156.726,276.248 157.690,274.342 159.192 M235.718 164.551 L 234.570 165.820 235.840 164.673 C 236.538 164.042,237.109 163.471,237.109 163.403 C 237.109 163.102,236.787 163.367,235.718 164.551 M245.207 168.199 C 223.615 186.298,207.286 212.376,198.439 242.888 L 197.613 245.736 194.858 245.622 L 192.102 245.508 189.860 239.844 C 172.770 196.660,173.711 199.144,174.303 198.762 C 174.579 198.585,177.692 198.483,181.220 198.536 L 187.635 198.633 190.886 206.445 C 197.780 223.010,199.360 226.576,199.620 226.155 C 199.768 225.915,199.370 224.459,198.736 222.918 C 198.102 221.378,196.120 216.514,194.332 212.109 C 192.544 207.705,190.489 202.695,189.765 200.977 L 188.449 197.852 180.845 197.852 L 173.242 197.852 173.116 198.740 C 173.046 199.232,176.474 208.402,180.782 219.248 C 185.068 230.039,189.229 240.581,190.030 242.676 L 191.487 246.484 201.365 246.484 L 211.243 246.484 211.841 244.990 C 212.170 244.169,213.260 241.048,214.264 238.057 C 218.491 225.454,222.845 213.952,227.747 202.441 C 228.713 200.172,229.095 199.924,229.450 201.337 C 230.422 205.210,236.463 207.510,240.850 205.677 C 249.642 202.003,245.514 189.759,235.870 190.901 C 234.208 191.098,233.918 191.044,234.188 190.589 C 235.120 189.020,239.341 182.808,240.380 181.478 C 241.540 179.993,242.095 178.676,241.372 179.123 C 240.781 179.488,240.972 178.648,241.597 178.129 C 242.205 177.624,242.013 176.774,241.379 177.165 C 241.179 177.289,241.016 177.204,241.016 176.976 C 241.016 176.749,240.742 176.563,240.407 176.563 C 240.072 176.563,239.906 176.387,240.039 176.172 C 240.172 175.957,240.094 175.759,239.867 175.732 C 239.639 175.706,239.248 175.662,238.997 175.635 C 237.589 175.484,239.020 173.685,241.169 172.906 C 241.576 172.758,241.797 172.526,241.661 172.390 C 241.267 171.996,242.211 171.094,243.017 171.094 C 243.420 171.094,243.750 171.281,243.750 171.511 C 243.750 171.750,244.083 171.822,244.531 171.680 C 245.149 171.484,245.313 171.609,245.313 172.281 C 245.313 172.876,245.488 173.063,245.898 172.906 C 246.221 172.782,246.484 172.866,246.484 173.092 C 246.484 173.318,246.704 173.422,246.973 173.324 C 247.241 173.225,247.413 172.934,247.354 172.676 C 247.295 172.418,247.396 172.300,247.580 172.414 C 247.764 172.527,248.867 171.621,250.031 170.400 C 251.196 169.180,251.665 168.603,251.074 169.119 C 250.112 169.960,249.812 169.940,249.954 169.043 C 249.979 168.882,249.648 168.750,249.219 168.750 C 248.789 168.750,248.438 168.924,248.438 169.137 C 248.438 169.350,248.086 169.223,247.656 168.855 C 246.665 168.006,246.675 167.646,247.724 166.529 C 249.121 165.042,248.413 165.512,245.207 168.199 M246.875 170.520 C 246.875 171.137,245.839 171.750,245.452 171.363 C 245.208 171.119,246.126 169.960,246.582 169.937 C 246.743 169.929,246.875 170.191,246.875 170.520 M240.144 192.401 C 247.337 195.407,245.151 205.469,237.305 205.469 C 232.642 205.469,228.863 201.112,230.282 197.371 C 232.237 192.220,235.624 190.513,240.144 192.401 M149.107 197.636 C 132.405 197.821,129.606 197.934,129.288 198.438 C 128.731 199.320,128.800 209.263,129.366 209.613 C 129.619 209.769,134.435 209.855,140.068 209.804 C 145.902 209.752,150.406 209.865,150.531 210.067 C 150.716 210.367,140.537 222.918,133.845 230.639 C 132.740 231.914,131.089 233.912,130.176 235.080 L 128.516 237.203 128.516 241.405 C 128.516 244.664,128.647 245.717,129.102 246.094 C 129.776 246.654,172.588 246.709,173.146 246.151 C 173.319 245.978,173.411 243.302,173.351 240.204 L 173.242 234.570 161.230 234.467 C 154.624 234.410,149.219 234.260,149.219 234.133 C 149.219 233.873,151.205 231.450,163.983 216.128 C 171.790 206.766,171.482 207.324,171.477 202.539 C 171.470 196.746,174.262 197.358,149.107 197.636 M86.156 198.010 C 85.827 198.542,85.764 245.497,86.091 246.026 C 86.392 246.514,124.697 246.726,125.945 246.247 C 126.739 245.943,126.874 235.624,126.094 234.844 C 125.749 234.499,122.344 234.375,113.203 234.375 L 100.781 234.375 100.781 231.055 L 100.781 227.734 111.445 227.734 C 124.163 227.734,123.047 228.298,123.047 221.875 C 123.047 215.452,124.159 216.016,111.476 216.016 L 100.843 216.016 100.714 213.052 C 100.554 209.348,99.008 209.766,112.878 209.766 C 127.110 209.766,125.781 210.389,125.781 203.711 C 125.781 200.252,125.629 198.442,125.312 198.125 C 124.739 197.552,86.508 197.439,86.156 198.010 M124.569 198.975 C 124.876 199.344,124.989 201.046,124.915 204.157 L 124.805 208.789 112.207 208.892 L 99.609 208.995 99.609 212.896 L 99.609 216.797 110.754 216.797 L 121.898 216.797 121.789 221.777 L 121.680 226.758 110.645 226.862 L 99.609 226.965 99.609 231.056 L 99.609 235.146 112.598 235.249 L 125.586 235.352 125.586 240.430 L 125.586 245.508 106.152 245.609 L 86.719 245.710 86.719 222.302 C 86.719 203.936,86.824 198.852,87.207 198.704 C 88.562 198.177,124.121 198.435,124.569 198.975 M170.229 202.679 C 170.362 207.494,171.958 205.009,157.721 222.152 C 151.971 229.076,147.266 234.832,147.266 234.943 C 147.266 235.054,152.935 235.192,159.863 235.248 L 172.461 235.352 172.461 240.430 L 172.461 245.508 150.977 245.508 L 129.492 245.508 129.381 241.551 L 129.271 237.594 135.608 230.027 C 148.468 214.675,150.168 212.661,151.631 211.044 C 152.453 210.136,153.125 209.257,153.125 209.091 C 153.125 208.925,147.896 208.843,141.504 208.908 L 129.883 209.027 130.014 204.027 C 130.100 200.787,130.306 198.925,130.600 198.736 C 130.850 198.576,139.844 198.488,150.586 198.539 L 170.117 198.633 170.229 202.679 M292.676 200.259 C 292.323 200.401,292.188 201.752,292.188 205.111 L 292.188 209.766 290.053 209.766 C 287.275 209.766,287.181 209.987,287.411 215.918 L 287.596 220.703 289.859 220.703 L 292.123 220.703 292.253 229.395 C 292.382 238.003,292.393 238.107,293.478 240.316 C 296.647 246.770,307.498 249.561,315.099 245.877 C 317.717 244.608,317.737 244.506,316.217 240.141 C 314.199 234.346,314.066 234.199,311.861 235.349 C 307.564 237.590,306.250 235.628,306.250 226.973 L 306.250 220.703 310.505 220.703 C 315.563 220.703,315.234 221.096,315.234 215.055 C 315.234 209.694,315.358 209.829,310.330 209.683 L 306.445 209.570 306.334 205.297 C 306.272 202.946,306.031 200.793,305.798 200.511 C 305.376 200.004,293.858 199.782,292.676 200.259 M305.469 206.264 L 305.469 210.938 309.766 210.938 L 314.063 210.938 314.063 215.234 L 314.063 219.531 309.742 219.531 L 305.422 219.531 305.543 227.183 L 305.664 234.835 306.760 235.777 C 308.063 236.897,310.363 237.036,312.165 236.104 C 312.819 235.766,313.401 235.546,313.458 235.616 C 313.967 236.235,316.441 243.487,316.283 243.897 C 315.321 246.404,304.718 247.311,300.344 245.260 C 294.113 242.338,293.202 240.289,293.035 228.827 L 292.905 219.959 290.691 219.843 L 288.477 219.727 288.366 215.097 L 288.256 210.467 290.612 210.741 L 292.969 211.014 292.969 206.104 L 292.969 201.193 298.535 201.085 C 305.943 200.941,305.469 200.586,305.469 206.264 M264.118 208.252 C 243.044 211.754,241.711 241.299,262.384 246.684 C 269.293 248.483,278.458 246.751,283.105 242.768 C 285.404 240.798,285.275 240.270,281.571 236.476 C 278.145 232.966,277.821 232.812,276.232 233.938 C 272.101 236.867,266.451 236.731,263.505 233.633 C 261.907 231.952,261.531 232.015,274.662 231.767 C 288.069 231.514,287.501 231.665,287.497 228.370 C 287.480 214.664,277.453 206.036,264.118 208.252 M236.523 209.375 L 230.273 209.570 230.078 227.344 C 229.971 237.119,230.021 245.425,230.190 245.801 C 230.549 246.602,243.468 246.866,243.953 246.081 C 244.131 245.793,244.289 217.101,244.150 210.268 C 244.132 209.348,242.712 209.182,236.523 209.375 M274.120 209.953 C 281.936 212.422,285.981 217.921,286.266 226.465 L 286.412 230.859 276.898 230.939 C 271.664 230.982,266.021 230.969,264.355 230.909 C 260.848 230.782,260.583 231.144,262.318 233.697 C 264.901 237.499,270.746 238.003,276.120 234.887 L 277.826 233.898 280.905 236.959 C 284.595 240.628,284.588 240.573,281.651 242.735 C 271.797 249.989,255.495 246.609,250.433 236.262 C 242.863 220.788,257.379 204.665,274.120 209.953 M243.266 228.027 L 243.367 245.703 237.113 245.703 L 230.859 245.703 230.859 228.190 C 230.859 218.558,230.981 210.555,231.130 210.407 C 231.278 210.258,234.047 210.185,237.282 210.244 L 243.164 210.352 243.266 228.027 M265.039 218.680 C 262.989 219.652,260.938 222.319,260.938 224.011 C 260.938 224.125,264.014 224.219,267.773 224.219 C 275.334 224.219,275.105 224.318,273.800 221.622 C 272.308 218.539,268.228 217.169,265.039 218.680 M270.050 219.283 C 271.436 219.862,273.438 221.988,273.438 222.882 C 273.438 223.336,272.438 223.438,267.969 223.438 C 261.888 223.438,261.549 223.256,263.381 220.981 C 264.883 219.114,267.843 218.361,270.050 219.283 " stroke="none" fill="#26c6ed" fill-rule="evenodd"></path><path id="path3" d="M262.257 138.374 C 261.950 138.968,261.409 139.453,261.056 139.453 C 259.142 139.453,254.688 146.273,254.688 149.203 C 254.688 150.067,254.361 151.633,253.961 152.685 L 253.235 154.596 254.645 153.797 C 260.259 150.613,260.424 150.478,260.243 149.240 C 259.504 144.205,266.568 141.042,271.024 144.413 L 272.321 145.394 274.972 144.707 C 277.546 144.039,278.101 142.595,275.792 142.572 C 275.264 142.567,275.263 142.522,275.781 142.188 C 276.255 141.881,276.199 141.808,275.488 141.803 C 274.823 141.798,274.609 141.569,274.609 140.862 C 274.609 140.345,274.304 139.795,273.926 139.631 C 270.943 138.336,268.885 137.794,266.075 137.563 L 262.815 137.295 262.257 138.374 M251.676 147.183 C 253.529 149.055,253.830 149.540,253.422 149.997 C 253.000 150.470,253.030 150.472,253.634 150.014 C 254.266 149.534,250.643 144.922,249.634 144.922 C 249.526 144.922,250.446 145.940,251.676 147.183 M275.293 151.253 C 274.058 151.916,273.047 152.654,273.047 152.893 C 273.047 153.627,271.055 155.525,269.683 156.098 C 267.995 156.803,267.757 156.782,268.409 155.985 C 268.704 155.625,267.665 156.259,266.100 157.394 C 263.986 158.927,263.357 159.582,263.655 159.940 C 263.875 160.206,263.925 160.563,263.766 160.733 C 263.607 160.904,263.893 160.826,264.403 160.561 C 264.912 160.295,265.225 160.246,265.098 160.451 C 264.972 160.656,265.330 161.245,265.895 161.760 C 266.460 162.274,266.796 162.476,266.641 162.207 C 266.444 161.864,266.696 161.719,267.485 161.719 C 269.170 161.719,272.226 160.605,274.318 159.229 L 276.175 158.008 275.945 156.050 L 275.715 154.092 277.408 153.203 C 278.339 152.714,278.774 152.410,278.374 152.528 C 277.841 152.686,277.708 152.586,277.874 152.153 C 278.575 150.325,277.634 149.997,275.293 151.253 M268.359 164.648 C 269.088 165.400,269.772 166.016,269.880 166.016 C 269.987 166.016,269.479 165.400,268.750 164.648 C 268.021 163.896,267.337 163.281,267.230 163.281 C 267.122 163.281,267.631 163.896,268.359 164.648 M233.374 166.895 L 232.227 168.164 233.496 167.017 C 234.194 166.386,234.766 165.814,234.766 165.747 C 234.766 165.445,234.443 165.711,233.374 166.895 M253.296 167.285 L 252.148 168.555 253.418 167.407 C 254.116 166.776,254.688 166.205,254.688 166.138 C 254.688 165.836,254.365 166.102,253.296 167.285 M231.627 171.387 L 229.492 173.633 231.738 171.498 C 232.974 170.323,233.984 169.313,233.984 169.252 C 233.984 168.962,233.611 169.300,231.627 171.387 M275.391 172.070 C 276.119 172.822,276.804 173.438,276.911 173.438 C 277.018 173.438,276.510 172.822,275.781 172.070 C 275.052 171.318,274.368 170.703,274.261 170.703 C 274.153 170.703,274.662 171.318,275.391 172.070 M96.387 197.558 C 101.597 197.620,110.122 197.620,115.332 197.558 C 120.542 197.497,116.279 197.446,105.859 197.446 C 95.439 197.446,91.177 197.497,96.387 197.558 M140.137 197.558 C 145.347 197.620,153.872 197.620,159.082 197.558 C 164.292 197.497,160.029 197.446,149.609 197.446 C 139.189 197.446,134.927 197.497,140.137 197.558 M177.851 197.557 C 179.742 197.629,182.730 197.628,184.492 197.556 C 186.254 197.484,184.707 197.425,181.055 197.425 C 177.402 197.426,175.961 197.485,177.851 197.557 M85.728 220.313 C 85.728 231.162,85.778 235.601,85.840 230.176 C 85.901 224.751,85.901 215.874,85.840 210.449 C 85.778 205.024,85.728 209.463,85.728 220.313 M291.946 205.273 C 291.947 207.852,292.010 208.855,292.086 207.504 C 292.163 206.153,292.162 204.044,292.085 202.817 C 292.008 201.590,291.945 202.695,291.946 205.273 M306.396 205.273 C 306.397 207.637,306.461 208.553,306.539 207.310 C 306.617 206.067,306.616 204.133,306.537 203.013 C 306.459 201.893,306.395 202.910,306.396 205.273 M125.906 206.250 C 125.906 207.646,125.977 208.218,126.064 207.520 C 126.150 206.821,126.150 205.679,126.064 204.980 C 125.977 204.282,125.906 204.854,125.906 206.250 M128.614 207.617 C 128.618 208.477,128.698 208.782,128.792 208.296 C 128.885 207.810,128.882 207.107,128.784 206.734 C 128.686 206.360,128.610 206.758,128.614 207.617 M234.100 209.275 C 235.775 209.348,238.411 209.348,239.959 209.274 C 241.507 209.200,240.137 209.140,236.914 209.141 C 233.691 209.141,232.425 209.202,234.100 209.275 M288.965 209.651 C 289.448 209.744,290.239 209.744,290.723 209.651 C 291.206 209.558,290.811 209.481,289.844 209.481 C 288.877 209.481,288.481 209.558,288.965 209.651 M135.352 210.038 C 143.057 210.316,150.693 210.326,150.526 210.059 C 150.426 209.897,146.268 209.801,141.286 209.845 C 136.303 209.889,133.633 209.975,135.352 210.038 M229.867 227.148 C 229.867 236.602,229.918 240.413,229.980 235.618 C 230.042 230.823,230.042 223.089,229.980 218.430 C 229.918 213.772,229.867 217.695,229.867 227.148 M244.313 222.852 C 244.313 229.082,244.367 231.576,244.433 228.394 C 244.499 225.212,244.498 220.114,244.433 217.066 C 244.367 214.018,244.313 216.621,244.313 222.852 M282.031 213.477 C 282.760 214.229,283.444 214.844,283.552 214.844 C 283.659 214.844,283.151 214.229,282.422 213.477 C 281.693 212.725,281.009 212.109,280.901 212.109 C 280.794 212.109,281.302 212.725,282.031 213.477 M287.252 216.602 C 287.253 218.750,287.319 219.579,287.398 218.444 C 287.477 217.309,287.476 215.551,287.396 214.538 C 287.316 213.524,287.251 214.453,287.252 216.602 M106.543 215.917 C 109.390 215.984,114.048 215.984,116.895 215.917 C 119.741 215.850,117.412 215.796,111.719 215.796 C 106.025 215.796,103.696 215.850,106.543 215.917 M288.574 220.979 C 289.058 221.072,289.849 221.072,290.332 220.979 C 290.815 220.886,290.420 220.810,289.453 220.810 C 288.486 220.810,288.091 220.886,288.574 220.979 M291.960 227.930 C 291.960 232.012,292.018 233.629,292.088 231.523 C 292.159 229.417,292.158 226.077,292.088 224.101 C 292.017 222.125,291.959 223.848,291.960 227.930 M306.410 227.148 C 306.409 230.801,306.468 232.347,306.540 230.586 C 306.613 228.824,306.613 225.835,306.541 223.945 C 306.469 222.055,306.410 223.496,306.410 227.148 M266.715 223.336 C 268.066 223.413,270.175 223.412,271.402 223.335 C 272.629 223.258,271.523 223.195,268.945 223.196 C 266.367 223.197,265.363 223.260,266.715 223.336 M247.387 227.539 C 247.389 228.828,247.462 229.308,247.549 228.606 C 247.636 227.904,247.634 226.850,247.545 226.263 C 247.456 225.676,247.384 226.250,247.387 227.539 M269.438 231.917 C 269.924 232.010,270.627 232.007,271.001 231.909 C 271.374 231.811,270.977 231.735,270.117 231.739 C 269.258 231.743,268.952 231.823,269.438 231.917 M275.859 231.931 C 277.728 232.003,280.892 232.003,282.890 231.932 C 284.889 231.861,283.359 231.802,279.492 231.802 C 275.625 231.802,273.990 231.860,275.859 231.931 M149.218 234.082 C 149.219 234.243,154.536 234.338,161.035 234.292 C 172.836 234.209,171.496 234.077,156.933 233.889 C 152.690 233.834,149.218 233.921,149.218 234.082 M112.012 234.260 C 112.495 234.353,113.286 234.353,113.770 234.260 C 114.253 234.167,113.857 234.091,112.891 234.091 C 111.924 234.091,111.528 234.167,112.012 234.260 M123.344 234.261 C 123.830 234.354,124.533 234.351,124.907 234.253 C 125.280 234.155,124.883 234.079,124.023 234.083 C 123.164 234.087,122.858 234.167,123.344 234.261 M173.528 236.719 C 173.528 237.471,173.609 237.778,173.707 237.402 C 173.805 237.026,173.805 236.411,173.707 236.035 C 173.609 235.659,173.528 235.967,173.528 236.719 M126.712 240.820 C 126.712 243.398,126.776 244.402,126.852 243.051 C 126.929 241.700,126.928 239.591,126.851 238.364 C 126.773 237.137,126.711 238.242,126.712 240.820 M244.288 241.406 C 244.288 243.877,244.352 244.888,244.429 243.652 C 244.507 242.417,244.507 240.396,244.429 239.160 C 244.352 237.925,244.288 238.936,244.288 241.406 M173.528 239.844 C 173.528 240.596,173.609 240.903,173.707 240.527 C 173.805 240.151,173.805 239.536,173.707 239.160 C 173.609 238.784,173.528 239.092,173.528 239.844 M173.544 244.141 C 173.544 245.107,173.620 245.503,173.713 245.020 C 173.806 244.536,173.806 243.745,173.713 243.262 C 173.620 242.778,173.544 243.174,173.544 244.141 M211.328 246.029 C 211.328 246.361,208.714 246.509,201.660 246.575 L 191.992 246.665 201.536 246.777 C 210.447 246.882,212.450 246.695,211.595 245.840 C 211.448 245.693,211.328 245.778,211.328 246.029 M96.414 246.777 C 101.854 246.838,110.643 246.838,115.945 246.777 C 121.248 246.716,116.797 246.665,106.055 246.666 C 95.313 246.666,90.974 246.716,96.414 246.777 M145.215 246.777 C 149.995 246.839,157.817 246.839,162.598 246.777 C 167.378 246.715,163.467 246.664,153.906 246.664 C 144.346 246.664,140.435 246.715,145.215 246.777 M233.887 246.775 C 235.659 246.847,238.560 246.847,240.332 246.775 C 242.104 246.703,240.654 246.643,237.109 246.643 C 233.564 246.643,232.114 246.703,233.887 246.775 M267.285 247.550 C 268.091 247.634,269.409 247.634,270.215 247.550 C 271.021 247.466,270.361 247.397,268.750 247.397 C 267.139 247.397,266.479 247.466,267.285 247.550 " stroke="none" fill="#94e1f3" fill-rule="evenodd"></path><path id="path4" d="M298.963 141.459 C 299.480 141.759,299.807 141.756,300.116 141.447 C 300.430 141.132,300.235 141.019,299.395 141.028 C 298.384 141.038,298.331 141.091,298.963 141.459 M265.039 142.910 C 262.538 143.723,259.992 147.042,260.218 149.195 C 260.302 149.997,260.096 150.563,259.565 150.993 C 259.138 151.338,259.864 151.052,261.178 150.358 C 262.929 149.433,263.521 148.920,263.394 148.436 C 262.955 146.757,266.441 145.202,268.520 146.149 C 269.270 146.491,269.931 146.474,271.349 146.077 C 272.367 145.792,272.946 145.476,272.635 145.375 C 272.324 145.274,271.543 144.796,270.898 144.314 C 269.103 142.969,266.658 142.383,265.039 142.910 M271.679 153.614 C 268.881 155.563,267.930 156.342,268.118 156.529 C 268.491 156.902,271.674 155.074,272.402 154.069 C 273.351 152.758,273.118 152.612,271.679 153.614 M264.844 161.060 C 264.844 161.127,265.415 161.698,266.113 162.329 L 267.383 163.477 266.236 162.207 C 265.166 161.024,264.844 160.758,264.844 161.060 M272.249 168.848 C 273.868 170.572,274.219 170.882,274.219 170.589 C 274.219 170.526,273.384 169.691,272.363 168.734 L 270.508 166.992 272.249 168.848 M249.987 170.605 L 247.852 172.852 250.098 170.716 C 251.333 169.542,252.344 168.531,252.344 168.470 C 252.344 168.180,251.970 168.519,249.987 170.605 M125.909 201.367 C 125.911 202.871,125.982 203.438,126.066 202.628 C 126.151 201.818,126.149 200.587,126.063 199.894 C 125.977 199.200,125.908 199.863,125.909 201.367 M171.605 201.367 C 171.608 202.656,171.681 203.137,171.767 202.434 C 171.854 201.732,171.853 200.678,171.763 200.091 C 171.674 199.504,171.603 200.078,171.605 201.367 M298.355 199.899 C 299.706 199.975,301.816 199.975,303.043 199.898 C 304.270 199.820,303.164 199.758,300.586 199.759 C 298.008 199.759,297.004 199.822,298.355 199.899 M128.627 204.492 C 128.630 205.566,128.706 205.959,128.796 205.366 C 128.886 204.772,128.883 203.893,128.791 203.413 C 128.698 202.932,128.624 203.418,128.627 204.492 M308.509 209.663 C 309.644 209.743,311.402 209.742,312.415 209.662 C 313.429 209.581,312.500 209.517,310.352 209.518 C 308.203 209.519,307.374 209.584,308.509 209.663 M106.763 210.058 C 110.160 210.123,115.609 210.123,118.872 210.058 C 122.135 209.992,119.355 209.939,112.695 209.939 C 106.035 209.939,103.365 209.993,106.763 210.058 M315.379 214.844 C 315.379 217.100,315.443 218.022,315.522 216.895 C 315.601 215.767,315.601 213.921,315.522 212.793 C 315.443 211.665,315.379 212.588,315.379 214.844 M307.722 220.986 C 308.424 221.073,309.479 221.071,310.066 220.982 C 310.653 220.893,310.078 220.822,308.789 220.824 C 307.500 220.826,307.020 220.899,307.722 220.986 M287.599 228.320 C 287.603 229.180,287.683 229.485,287.776 228.999 C 287.870 228.513,287.866 227.810,287.768 227.437 C 287.671 227.063,287.594 227.461,287.599 228.320 M105.371 228.026 C 108.003 228.094,112.310 228.094,114.941 228.026 C 117.573 227.959,115.420 227.903,110.156 227.903 C 104.893 227.903,102.739 227.959,105.371 228.026 M281.445 236.328 C 282.938 237.832,284.247 239.063,284.354 239.063 C 284.461 239.063,283.328 237.832,281.836 236.328 C 280.344 234.824,279.035 233.594,278.927 233.594 C 278.820 233.594,279.953 234.824,281.445 236.328 M103.206 234.274 C 104.646 234.349,107.107 234.349,108.674 234.275 C 110.241 234.200,109.063 234.139,106.055 234.138 C 103.047 234.138,101.765 234.199,103.206 234.274 M116.518 234.273 C 117.761 234.351,119.695 234.351,120.815 234.272 C 121.935 234.193,120.918 234.130,118.555 234.130 C 116.191 234.131,115.275 234.196,116.518 234.273 M251.953 240.747 C 251.953 240.814,252.524 241.386,253.223 242.017 L 254.492 243.164 253.345 241.895 C 252.275 240.711,251.953 240.445,251.953 240.747 " stroke="none" fill="#c8ecf5" fill-rule="evenodd"></path></g></svg>